<svg width="32" height="33" viewBox="0 0 32 33" fill="none" xmlns="http://www.w3.org/2000/svg">
<path d="M24.238 8.29764C24.301 8.49484 24.3331 8.70062 24.333 8.90764V9.53764H27C27.2652 9.53764 27.5196 9.643 27.7071 9.83054C27.8946 10.0181 28 10.2724 28 10.5376V23.5376C28 23.8029 27.8946 24.0572 27.7071 24.2448C27.5196 24.4323 27.2652 24.5376 27 24.5376H5C4.73478 24.5376 4.48043 24.4323 4.29289 24.2448C4.10536 24.0572 4 23.8029 4 23.5376V10.5376C4 10.2724 4.10536 10.0181 4.29289 9.83054C4.48043 9.643 4.73478 9.53764 5 9.53764H7.666V8.90764C7.66595 8.59271 7.74028 8.28222 7.88293 8.00145C8.02558 7.72067 8.23252 7.47756 8.4869 7.29189C8.74128 7.10622 9.03591 6.98325 9.34681 6.93298C9.6577 6.88272 9.97607 6.90659 10.276 7.00264L16 9.13764L21.724 7.00364C22.2291 6.84209 22.7777 6.88776 23.2491 7.13061C23.7206 7.37345 24.0763 7.79259 24.238 8.29764ZM7.666 11.5376H6V22.5376H13.108L9.058 21.0456C8.65416 20.9165 8.30179 20.6624 8.05177 20.32C7.80175 19.9776 7.66701 19.5646 7.667 19.1406L7.666 11.5376ZM26 11.5376H24.333V19.1406C24.3331 19.5645 24.1985 19.9774 23.9486 20.3198C23.6988 20.6622 23.3467 20.9164 22.943 21.0456L18.89 22.5376H26V11.5376ZM9.667 8.90764V19.1406L15 21.1676V10.9346L9.667 8.90764ZM22.333 8.90764L17 10.9346V21.1676L22.333 19.1406V8.90764Z" fill="#013499"/>
</svg>
