<svg width="17" height="17" viewBox="0 0 17 17" fill="none" xmlns="http://www.w3.org/2000/svg">
<path d="M7.46744 15.4314L7.45844 15.4049C7.44645 15.364 7.44022 15.3216 7.43994 15.2789V13.2689C7.02018 12.9541 6.71011 12.5152 6.55366 12.0143C6.39721 11.5135 6.40231 10.9761 6.56823 10.4784C6.73416 9.98057 7.0525 9.54762 7.47817 9.24082C7.90383 8.93401 8.41524 8.76892 8.93994 8.76892C9.46465 8.76892 9.97605 8.93401 10.4017 9.24082C10.8274 9.54762 11.1457 9.98057 11.3116 10.4784C11.4776 10.9761 11.4827 11.5135 11.3262 12.0143C11.1698 12.5152 10.8597 12.9541 10.4399 13.2689V13.2674V15.2689L10.4394 15.2789V15.2889C10.4392 15.2981 10.4387 15.3073 10.4379 15.3164V15.3079L10.4339 15.3464C10.4311 15.3662 10.4269 15.3857 10.4214 15.4049L10.4149 15.4249C10.4111 15.4369 10.4068 15.4488 10.4019 15.4604L10.3994 15.4664L10.3944 15.4779C10.3882 15.4916 10.3814 15.5049 10.3739 15.5179L10.3769 15.5109L10.3684 15.5269C10.3622 15.5373 10.3555 15.5475 10.3484 15.5574L10.3334 15.5779C10.3284 15.5829 10.3244 15.5889 10.3199 15.5939L10.3084 15.6069L10.2969 15.6194C10.2779 15.6377 10.2579 15.6549 10.2369 15.6709C10.215 15.6875 10.1915 15.7021 10.1669 15.7144L10.1344 15.7294C10.1123 15.738 10.0897 15.7457 10.0669 15.7524L10.0544 15.7559L10.0364 15.7594C10.0081 15.7651 9.97933 15.7682 9.95044 15.7689H9.93994L9.90094 15.7674L9.89894 15.7669L9.93994 15.7689H9.92044C9.91109 15.7685 9.90175 15.7679 9.89244 15.7669H9.89894L9.86244 15.7629C9.84268 15.7601 9.82314 15.7559 9.80394 15.7504L9.78394 15.7439C9.77107 15.7398 9.75839 15.7351 9.74594 15.7299L9.73644 15.7259L8.93994 15.3709L8.14344 15.7259L8.10244 15.7409L8.07594 15.7504C8.0382 15.7614 7.99922 15.7674 7.95994 15.7684H7.94994L7.93994 15.7689C7.90124 15.769 7.86265 15.7646 7.82494 15.7559L7.81294 15.7524C7.78993 15.7464 7.76737 15.7387 7.74544 15.7294L7.71294 15.7144C7.69769 15.7062 7.68269 15.6975 7.66794 15.6884C7.65943 15.6828 7.6511 15.677 7.64294 15.6709L7.62344 15.6559L7.60194 15.6374L7.59194 15.6284L7.58294 15.6189C7.57007 15.606 7.55804 15.5924 7.54694 15.5779L7.53194 15.5579C7.51416 15.5326 7.4986 15.5059 7.48544 15.4779L7.48294 15.4724L7.48044 15.4659L7.47794 15.4609L7.47094 15.4424L7.47844 15.4604L7.46744 15.4314ZM9.44044 13.7189C9.11032 13.786 8.77007 13.786 8.43994 13.7189V14.4984L8.64994 14.4054C8.74088 14.3648 8.8419 14.3525 8.93994 14.3699C9.03798 14.3524 9.13902 14.3648 9.22994 14.4054L9.43994 14.4989L9.44044 13.7189ZM13.4399 3.76892C13.8225 3.7689 14.1907 3.91508 14.4691 4.17756C14.7474 4.44004 14.915 4.79897 14.9374 5.18092L14.9399 5.26892V11.2689C14.94 11.6515 14.7938 12.0197 14.5313 12.2981C14.2688 12.5764 13.9099 12.744 13.5279 12.7664L13.4399 12.7689H12.4399L12.3814 12.7654C12.2599 12.751 12.1479 12.6924 12.0666 12.6009C11.9854 12.5094 11.9405 12.3913 11.9405 12.2689C11.9405 12.1465 11.9854 12.0284 12.0666 11.9369C12.1479 11.8454 12.2599 11.7869 12.3814 11.7724L12.4399 11.7689H13.4399C13.5624 11.7689 13.6806 11.7239 13.7721 11.6426C13.8636 11.5612 13.9221 11.449 13.9364 11.3274L13.9399 11.2689V5.26892C13.9399 5.14645 13.895 5.02825 13.8136 4.93673C13.7322 4.84522 13.6201 4.78675 13.4984 4.77242L13.4399 4.76892H4.43994C4.31747 4.76894 4.19927 4.8139 4.10776 4.89528C4.01624 4.97666 3.95777 5.0888 3.94344 5.21042L3.93994 5.26892V11.2689C3.93996 11.3914 3.98492 11.5096 4.0663 11.6011C4.14768 11.6926 4.25982 11.7511 4.38144 11.7654L4.43994 11.7689H5.43994C5.56738 11.7691 5.68996 11.8179 5.78263 11.9053C5.87529 11.9928 5.93106 12.1124 5.93853 12.2396C5.946 12.3668 5.9046 12.4921 5.82281 12.5898C5.74101 12.6876 5.62499 12.7504 5.49844 12.7654L5.43994 12.7689H4.43994C4.05734 12.7689 3.68918 12.6228 3.41081 12.3603C3.13244 12.0978 2.96489 11.7389 2.94244 11.3569L2.93994 11.2689V5.26892C2.93992 4.88632 3.0861 4.51816 3.34858 4.23979C3.61106 3.96142 3.96999 3.79387 4.35194 3.77142L4.43994 3.76892H13.4399ZM8.93994 9.76892C8.54212 9.76892 8.16059 9.92696 7.87928 10.2083C7.59798 10.4896 7.43994 10.8711 7.43994 11.2689C7.43994 11.6667 7.59798 12.0483 7.87928 12.3296C8.16059 12.6109 8.54212 12.7689 8.93994 12.7689C9.33777 12.7689 9.7193 12.6109 10.0006 12.3296C10.2819 12.0483 10.4399 11.6667 10.4399 11.2689C10.4399 10.8711 10.2819 10.4896 10.0006 10.2083C9.7193 9.92696 9.33777 9.76892 8.93994 9.76892ZM12.6899 8.76892C12.7562 8.76892 12.8198 8.79526 12.8667 8.84214C12.9136 8.88903 12.9399 8.95262 12.9399 9.01892C12.9399 9.08523 12.9136 9.14881 12.8667 9.1957C12.8198 9.24258 12.7562 9.26892 12.6899 9.26892H12.1899C12.1236 9.26892 12.06 9.24258 12.0132 9.1957C11.9663 9.14881 11.9399 9.08523 11.9399 9.01892C11.9399 8.95262 11.9663 8.88903 12.0132 8.84214C12.06 8.79526 12.1236 8.76892 12.1899 8.76892H12.6899ZM5.68994 8.76892C5.75625 8.76892 5.81983 8.79526 5.86672 8.84214C5.9136 8.88903 5.93994 8.95262 5.93994 9.01892C5.93994 9.08523 5.9136 9.14881 5.86672 9.1957C5.81983 9.24258 5.75625 9.26892 5.68994 9.26892H5.18994C5.12364 9.26892 5.06005 9.24258 5.01316 9.1957C4.96628 9.14881 4.93994 9.08523 4.93994 9.01892C4.93994 8.95262 4.96628 8.88903 5.01316 8.84214C5.06005 8.79526 5.12364 8.76892 5.18994 8.76892H5.68994ZM8.18994 7.26892C8.25625 7.26892 8.31983 7.29526 8.36672 7.34214C8.4136 7.38903 8.43994 7.45262 8.43994 7.51892C8.43994 7.58523 8.4136 7.64881 8.36672 7.6957C8.31983 7.74258 8.25625 7.76892 8.18994 7.76892H5.18994C5.12364 7.76892 5.06005 7.74258 5.01316 7.6957C4.96628 7.64881 4.93994 7.58523 4.93994 7.51892C4.93994 7.45262 4.96628 7.38903 5.01316 7.34214C5.06005 7.29526 5.12364 7.26892 5.18994 7.26892H8.18994ZM12.6899 7.26892C12.7562 7.26892 12.8198 7.29526 12.8667 7.34214C12.9136 7.38903 12.9399 7.45262 12.9399 7.51892C12.9399 7.58523 12.9136 7.64881 12.8667 7.6957C12.8198 7.74258 12.7562 7.76892 12.6899 7.76892H9.68994C9.62364 7.76892 9.56005 7.74258 9.51316 7.6957C9.46628 7.64881 9.43994 7.58523 9.43994 7.51892C9.43994 7.45262 9.46628 7.38903 9.51316 7.34214C9.56005 7.29526 9.62364 7.26892 9.68994 7.26892H12.6899ZM12.6899 5.76892C12.7562 5.76892 12.8198 5.79526 12.8667 5.84214C12.9136 5.88903 12.9399 5.95262 12.9399 6.01892C12.9399 6.08523 12.9136 6.14881 12.8667 6.1957C12.8198 6.24258 12.7562 6.26892 12.6899 6.26892H5.18994C5.12364 6.26892 5.06005 6.24258 5.01316 6.1957C4.96628 6.14881 4.93994 6.08523 4.93994 6.01892C4.93994 5.95262 4.96628 5.88903 5.01316 5.84214C5.06005 5.79526 5.12364 5.76892 5.18994 5.76892H12.6899Z" fill="#0B0B0B"/>
</svg>
