<svg width="17" height="17" viewBox="0 0 17 17" fill="none" xmlns="http://www.w3.org/2000/svg">
<path d="M8.21997 3.76892C10.9815 3.76892 13.22 6.00742 13.22 8.76892C13.22 11.5304 10.9815 13.7689 8.21997 13.7689C5.45847 13.7689 3.21997 11.5304 3.21997 8.76892C3.21997 6.00742 5.45847 3.76892 8.21997 3.76892ZM8.21997 4.76892C7.1591 4.76892 6.14169 5.19035 5.39154 5.94049C4.6414 6.69064 4.21997 7.70806 4.21997 8.76892C4.21997 9.82979 4.6414 10.8472 5.39154 11.5973C6.14169 12.3475 7.1591 12.7689 8.21997 12.7689C9.28084 12.7689 10.2983 12.3475 11.0484 11.5973C11.7985 10.8472 12.22 9.82979 12.22 8.76892C12.22 7.70806 11.7985 6.69064 11.0484 5.94049C10.2983 5.19035 9.28084 4.76892 8.21997 4.76892ZM8.21997 5.76892C8.35258 5.76892 8.47976 5.8216 8.57352 5.91537C8.66729 6.00914 8.71997 6.13631 8.71997 6.26892V8.56142L10.0735 9.91542C10.1596 10.0015 10.2113 10.1161 10.2189 10.2376C10.2266 10.3591 10.1896 10.4792 10.115 10.5754L10.0735 10.6224C9.97971 10.7162 9.85255 10.7688 9.71997 10.7688C9.58739 10.7688 9.46023 10.7162 9.36647 10.6224L7.86647 9.12242L7.82997 9.08142C7.75896 8.99272 7.72018 8.88254 7.71997 8.76892L7.72197 8.81392C7.7209 8.80228 7.72023 8.79061 7.71997 8.77892V6.26892C7.71997 6.13631 7.77265 6.00914 7.86642 5.91537C7.96019 5.8216 8.08736 5.76892 8.21997 5.76892Z" fill="#0B0B0B"/>
</svg>
