<svg width="37" height="36" viewBox="0 0 37 36" fill="none" xmlns="http://www.w3.org/2000/svg">
<rect x="0.257324" width="36" height="36" rx="18" fill="#013499" fill-opacity="0.05"/>
<path d="M16.7848 24.6625L16.7758 24.636C16.7638 24.5951 16.7576 24.5527 16.7573 24.51V22.5C16.3376 22.1852 16.0275 21.7463 15.871 21.2454C15.7146 20.7446 15.7197 20.2072 15.8856 19.7094C16.0515 19.2117 16.3699 18.7787 16.7955 18.4719C17.2212 18.1651 17.7326 18 18.2573 18C18.782 18 19.2934 18.1651 19.7191 18.4719C20.1448 18.7787 20.4631 19.2117 20.629 19.7094C20.795 20.2072 20.8001 20.7446 20.6436 21.2454C20.4872 21.7463 20.1771 22.1852 19.7573 22.5V22.4985V24.5L19.7568 24.51V24.52C19.7566 24.5292 19.7561 24.5383 19.7553 24.5475V24.539L19.7513 24.5775C19.7485 24.5973 19.7443 24.6168 19.7388 24.636L19.7323 24.656C19.7285 24.668 19.7242 24.6799 19.7193 24.6915L19.7168 24.6975L19.7118 24.709C19.7056 24.7226 19.6988 24.736 19.6913 24.749L19.6943 24.742L19.6858 24.758C19.6795 24.7684 19.6729 24.7786 19.6658 24.7885L19.6508 24.809C19.6458 24.814 19.6418 24.82 19.6373 24.825L19.6258 24.838L19.6143 24.8505C19.5953 24.8687 19.5752 24.8859 19.5543 24.902C19.5323 24.9186 19.5089 24.9331 19.4843 24.9455L19.4518 24.9605C19.4296 24.9691 19.4071 24.9768 19.3843 24.9835L19.3718 24.987L19.3538 24.9905C19.3255 24.9961 19.2967 24.9993 19.2678 25H19.2573L19.2183 24.9985L19.2163 24.998L19.2573 25H19.2378C19.2285 24.9996 19.2191 24.9989 19.2098 24.998H19.2163L19.1798 24.994C19.1601 24.9912 19.1405 24.987 19.1213 24.9815L19.1013 24.975C19.0885 24.9709 19.0758 24.9662 19.0633 24.961L19.0538 24.957L18.2573 24.602L17.4608 24.957L17.4198 24.972L17.3933 24.9815C17.3556 24.9924 17.3166 24.9985 17.2773 24.9995H17.2673L17.2573 25C17.2186 25.0001 17.18 24.9957 17.1423 24.987L17.1303 24.9835C17.1073 24.9774 17.0848 24.9698 17.0628 24.9605L17.0303 24.9455C17.0151 24.9373 17.0001 24.9286 16.9853 24.9195C16.9768 24.9139 16.9685 24.9081 16.9603 24.902L16.9408 24.887L16.9193 24.8685L16.9093 24.8595L16.9003 24.85C16.8875 24.8371 16.8754 24.8234 16.8643 24.809L16.8493 24.789C16.8315 24.7637 16.816 24.737 16.8028 24.709L16.8003 24.7035L16.7978 24.697L16.7953 24.692L16.7883 24.6735L16.7958 24.6915L16.7848 24.6625ZM18.7578 22.95C18.4277 23.0171 18.0874 23.0171 17.7573 22.95V23.7295L17.9673 23.6365C18.0583 23.5959 18.1593 23.5835 18.2573 23.601C18.3554 23.5835 18.4564 23.5958 18.5473 23.6365L18.7573 23.73L18.7578 22.95ZM22.7573 13C23.1399 13 23.5081 13.1462 23.7865 13.4086C24.0648 13.6711 24.2324 14.0301 24.2548 14.412L24.2573 14.5V20.5C24.2573 20.8826 24.1112 21.2508 23.8487 21.5291C23.5862 21.8075 23.2273 21.9751 22.8453 21.9975L22.7573 22H21.7573L21.6988 21.9965C21.5773 21.982 21.4653 21.9235 21.384 21.832C21.3028 21.7405 21.2579 21.6224 21.2579 21.5C21.2579 21.3776 21.3028 21.2595 21.384 21.168C21.4653 21.0765 21.5773 21.018 21.6988 21.0035L21.7573 21H22.7573C22.8798 21 22.998 20.955 23.0895 20.8736C23.181 20.7923 23.2395 20.6801 23.2538 20.5585L23.2573 20.5V14.5C23.2573 14.3775 23.2123 14.2593 23.131 14.1678C23.0496 14.0763 22.9375 14.0178 22.8158 14.0035L22.7573 14H13.7573C13.6349 14 13.5167 14.045 13.4251 14.1264C13.3336 14.2077 13.2752 14.3199 13.2608 14.4415L13.2573 14.5V20.5C13.2573 20.6225 13.3023 20.7407 13.3837 20.8322C13.4651 20.9237 13.5772 20.9822 13.6988 20.9965L13.7573 21H14.7573C14.8848 21.0001 15.0073 21.0489 15.1 21.1364C15.1927 21.2239 15.2484 21.3435 15.2559 21.4707C15.2634 21.5979 15.222 21.7232 15.1402 21.8209C15.0584 21.9186 14.9424 21.9814 14.8158 21.9965L14.7573 22H13.7573C13.3747 22 13.0066 21.8538 12.7282 21.5914C12.4498 21.3289 12.2823 20.9699 12.2598 20.588L12.2573 20.5V14.5C12.2573 14.1174 12.4035 13.7492 12.666 13.4709C12.9284 13.1925 13.2874 13.0249 13.6693 13.0025L13.7573 13H22.7573ZM18.2573 19C17.8595 19 17.478 19.158 17.1967 19.4393C16.9154 19.7206 16.7573 20.1022 16.7573 20.5C16.7573 20.8978 16.9154 21.2794 17.1967 21.5607C17.478 21.842 17.8595 22 18.2573 22C18.6551 22 19.0367 21.842 19.318 21.5607C19.5993 21.2794 19.7573 20.8978 19.7573 20.5C19.7573 20.1022 19.5993 19.7206 19.318 19.4393C19.0367 19.158 18.6551 19 18.2573 19ZM22.0073 18C22.0736 18 22.1372 18.0263 22.1841 18.0732C22.231 18.1201 22.2573 18.1837 22.2573 18.25C22.2573 18.3163 22.231 18.3799 22.1841 18.4268C22.1372 18.4737 22.0736 18.5 22.0073 18.5H21.5073C21.441 18.5 21.3774 18.4737 21.3305 18.4268C21.2837 18.3799 21.2573 18.3163 21.2573 18.25C21.2573 18.1837 21.2837 18.1201 21.3305 18.0732C21.3774 18.0263 21.441 18 21.5073 18H22.0073ZM15.0073 18C15.0736 18 15.1372 18.0263 15.1841 18.0732C15.231 18.1201 15.2573 18.1837 15.2573 18.25C15.2573 18.3163 15.231 18.3799 15.1841 18.4268C15.1372 18.4737 15.0736 18.5 15.0073 18.5H14.5073C14.441 18.5 14.3774 18.4737 14.3305 18.4268C14.2837 18.3799 14.2573 18.3163 14.2573 18.25C14.2573 18.1837 14.2837 18.1201 14.3305 18.0732C14.3774 18.0263 14.441 18 14.5073 18H15.0073ZM17.5073 16.5C17.5736 16.5 17.6372 16.5263 17.6841 16.5732C17.731 16.6201 17.7573 16.6837 17.7573 16.75C17.7573 16.8163 17.731 16.8799 17.6841 16.9268C17.6372 16.9737 17.5736 17 17.5073 17H14.5073C14.441 17 14.3774 16.9737 14.3305 16.9268C14.2837 16.8799 14.2573 16.8163 14.2573 16.75C14.2573 16.6837 14.2837 16.6201 14.3305 16.5732C14.3774 16.5263 14.441 16.5 14.5073 16.5H17.5073ZM22.0073 16.5C22.0736 16.5 22.1372 16.5263 22.1841 16.5732C22.231 16.6201 22.2573 16.6837 22.2573 16.75C22.2573 16.8163 22.231 16.8799 22.1841 16.9268C22.1372 16.9737 22.0736 17 22.0073 17H19.0073C18.941 17 18.8774 16.9737 18.8305 16.9268C18.7837 16.8799 18.7573 16.8163 18.7573 16.75C18.7573 16.6837 18.7837 16.6201 18.8305 16.5732C18.8774 16.5263 18.941 16.5 19.0073 16.5H22.0073ZM22.0073 15C22.0736 15 22.1372 15.0263 22.1841 15.0732C22.231 15.1201 22.2573 15.1837 22.2573 15.25C22.2573 15.3163 22.231 15.3799 22.1841 15.4268C22.1372 15.4737 22.0736 15.5 22.0073 15.5H14.5073C14.441 15.5 14.3774 15.4737 14.3305 15.4268C14.2837 15.3799 14.2573 15.3163 14.2573 15.25C14.2573 15.1837 14.2837 15.1201 14.3305 15.0732C14.3774 15.0263 14.441 15 14.5073 15H22.0073Z" fill="#013499"/>
</svg>
