<svg width="36" height="36" viewBox="0 0 36 36" fill="none" xmlns="http://www.w3.org/2000/svg">
<rect width="36" height="36" rx="18" fill="#013499" fill-opacity="0.05"/>
<path fill-rule="evenodd" clip-rule="evenodd" d="M15.4285 23.1428C15.4285 23.6163 15.0448 24 14.5714 24H12.8571C12.3838 24 12 23.6163 12 23.1428V21C12 20.5266 12.3838 20.1428 12.8571 20.1428H14.5714C15.0448 20.1428 15.4285 20.5266 15.4285 21V23.1428ZM19.7143 23.1428V17.1428C19.7143 16.6694 19.3306 16.2857 18.8572 16.2857H17.1428C16.6694 16.2857 16.2857 16.6694 16.2857 17.1428V23.1428C16.2857 23.6163 16.6694 24 17.1428 24H18.8572C19.3306 24 19.7143 23.6163 19.7143 23.1428ZM20.5715 23.1428C20.5715 23.6163 20.9552 24 21.4285 24H23.1428C23.6163 24 24 23.6163 24 23.1428V12.8571C24 12.3838 23.6163 12 23.1428 12H21.4285C20.9552 12 20.5715 12.3838 20.5715 12.8571V23.1428ZM23.1428 12.8571H21.4285V23.1428H23.1428V12.8571Z" fill="#013499"/>
</svg>
