<svg width="16" height="17" viewBox="0 0 16 17" fill="none" xmlns="http://www.w3.org/2000/svg">
<path d="M5.78991 9.76642L6.49791 10.4744L4.65891 12.0979L4.63741 12.1179C4.59372 12.1616 4.55906 12.2134 4.53541 12.2705C4.51177 12.3275 4.4996 12.3887 4.4996 12.4504C4.4996 12.5122 4.51177 12.5733 4.53541 12.6304C4.55906 12.6874 4.59372 12.7393 4.63741 12.7829C4.72357 12.8689 4.83816 12.9206 4.95967 12.9281C5.08118 12.9357 5.20127 12.8986 5.29741 12.8239L5.34441 12.7824L7.07541 11.0514L7.78191 11.7584L6.05191 13.4894C5.79339 13.7481 5.44927 13.9034 5.08428 13.9261C4.71928 13.9489 4.35855 13.8375 4.06992 13.6129L3.99491 13.5499L3.92991 13.4899C3.66624 13.226 3.51276 12.8717 3.5006 12.4989C3.48844 12.126 3.6185 11.7624 3.86441 11.4819L3.93041 11.4109L3.97191 11.3709L5.78991 9.76642ZM4.19341 3.78592C4.57397 3.44153 5.07236 3.25662 5.58546 3.26946C6.09855 3.28231 6.58706 3.49192 6.94991 3.85492L6.99991 3.90892L7.04791 3.96892C7.18975 4.16151 7.25786 4.39857 7.23988 4.63708C7.2219 4.87559 7.11902 5.09976 6.94991 5.26892L6.88991 5.32892L6.93241 5.42842C7.00551 5.61532 7.04039 5.81499 7.03498 6.01561C7.02957 6.21623 6.98398 6.41372 6.90091 6.59642L12.2109 11.2819L12.2529 11.3219C12.5285 11.5976 12.6833 11.9714 12.6833 12.3612C12.6833 12.7509 12.5285 13.1248 12.2529 13.4004C12.1136 13.5397 11.9483 13.6502 11.7662 13.7256C11.5842 13.801 11.3892 13.8398 11.1922 13.8398C10.9952 13.8398 10.8001 13.801 10.6181 13.7256C10.4361 13.6502 10.2707 13.5397 10.1314 13.4004L5.18191 8.45092L5.11791 8.51142L5.02791 8.58492C4.87862 8.69882 4.70915 8.78347 4.52841 8.83442L4.50891 8.83892L4.50441 8.85792L4.47192 8.95992C4.39942 9.16092 4.28241 9.34992 4.12141 9.51142C4.02855 9.60432 3.91829 9.67801 3.79694 9.72829C3.67559 9.77857 3.54552 9.80445 3.41416 9.80445C3.28281 9.80445 3.15274 9.77857 3.03139 9.72829C2.91004 9.67801 2.79978 9.60432 2.70691 9.51142L1.29291 8.09742L1.24241 8.04292C1.07116 7.84415 0.984875 7.58603 1.00218 7.32423C1.01948 7.06243 1.13898 6.81792 1.33491 6.64342L1.37841 6.60492L1.42291 6.56742L1.49541 6.51342L1.58941 6.45292C1.68441 6.39592 1.78491 6.35092 1.88841 6.31792L1.96541 6.29392L1.97041 6.27592L2.00291 6.17442C2.07491 5.97292 2.19191 5.78392 2.35341 5.62242L4.12141 3.85492L4.19341 3.78592ZM6.21741 7.33092C6.12323 7.26499 6.01025 7.23131 5.89534 7.23491C5.78043 7.23852 5.66978 7.27921 5.57991 7.35092L5.53541 7.39042L10.8389 12.6934L10.8824 12.7324C10.9707 12.8022 11.0799 12.8401 11.1924 12.8401C11.3049 12.8401 11.4141 12.8022 11.5024 12.7324L11.5459 12.6934L11.5824 12.6524C11.6536 12.5621 11.6892 12.4488 11.6825 12.334C11.6758 12.2192 11.6272 12.1108 11.5459 12.0294L6.26491 7.36792L6.21741 7.33092ZM11.0329 3.28192L11.1229 3.29842L11.5404 3.39092C11.7509 3.4374 11.9458 3.53751 12.1061 3.68154C12.2665 3.82556 12.3869 4.00861 12.4556 4.2129C12.5243 4.41719 12.5391 4.63578 12.4984 4.84745C12.4577 5.05911 12.363 5.25666 12.2234 5.42092L12.1544 5.49542L11.3974 6.25192L11.4214 6.33792L11.4834 6.35392L12.2564 5.58142C12.47 5.3677 12.7537 5.23856 13.0551 5.21788C13.3565 5.1972 13.6552 5.28638 13.8959 5.46892L13.9644 5.52492L14.0244 5.58142C14.1628 5.71988 14.2668 5.88892 14.3279 6.07492L14.3549 6.16892L14.4664 6.62742C14.5136 6.82064 14.514 7.02234 14.4675 7.21574C14.4211 7.40915 14.3292 7.58868 14.1994 7.73942L14.1359 7.80742L12.7464 9.19742C12.6018 9.34188 12.4241 9.44868 12.2286 9.50848C12.0332 9.56828 11.8261 9.57924 11.6254 9.54042L11.5389 9.52042L10.7214 9.30092L9.71442 8.41242L10.0429 8.08392L11.7979 8.55442C11.8331 8.5638 11.8699 8.5654 11.9057 8.55909C11.9415 8.55279 11.9756 8.53874 12.0054 8.51792L12.0394 8.48992L13.4289 7.09992C13.454 7.07475 13.4735 7.04452 13.486 7.01124C13.4985 6.97796 13.5037 6.94239 13.5014 6.90692L13.4949 6.86442L13.3834 6.40592C13.3738 6.36653 13.3548 6.33007 13.328 6.29967C13.3011 6.26928 13.2673 6.24586 13.2294 6.23144C13.1915 6.21703 13.1507 6.21204 13.1105 6.21691C13.0702 6.22179 13.0318 6.23637 12.9984 6.25942L12.9634 6.28842L11.8874 7.36492C11.8619 7.39049 11.831 7.41022 11.7971 7.42274C11.7632 7.43525 11.727 7.44026 11.6909 7.43742L11.6474 7.42992L10.7519 7.19742C10.7167 7.18825 10.6839 7.17151 10.6559 7.14837C10.6278 7.12522 10.6051 7.09623 10.5894 7.06342L10.5739 7.02242L10.3169 6.09842C10.307 6.06296 10.305 6.02575 10.3112 5.98945C10.3173 5.95315 10.3314 5.91865 10.3524 5.88842L10.3809 5.85442L11.4474 4.78842C11.4765 4.75942 11.4979 4.72372 11.5099 4.68446C11.5219 4.6452 11.524 4.6036 11.5161 4.56333C11.5082 4.52305 11.4905 4.48535 11.4646 4.45353C11.4386 4.42172 11.4053 4.39678 11.3674 4.38092L11.3244 4.36742L10.9064 4.27492C10.8738 4.26765 10.84 4.267 10.8071 4.27301C10.7742 4.27902 10.7429 4.29157 10.7149 4.30992L10.6759 4.34192L9.28392 5.73392C9.25807 5.7597 9.23819 5.79084 9.22566 5.82513C9.21313 5.85942 9.20827 5.89604 9.21142 5.93242L9.21891 5.97542L9.67391 7.67242L9.27491 8.02392L8.51941 7.35742L8.54741 7.33242L8.25291 6.23442C8.20414 6.05249 8.19711 5.8619 8.23235 5.67687C8.26759 5.49185 8.34419 5.31718 8.45641 5.16592L8.51642 5.09192L8.57641 5.02692L9.96842 3.63492C10.1061 3.49723 10.274 3.39362 10.4589 3.33233C10.6437 3.27105 10.8402 3.25378 11.0329 3.28192ZM6.18791 4.51092C5.99664 4.3462 5.75015 4.25991 5.4979 4.26937C5.24565 4.27883 5.00632 4.38334 4.82791 4.56192L3.06091 6.32892L3.02241 6.37292C2.94643 6.46902 2.90837 6.58968 2.91547 6.71199C2.92257 6.8343 2.97432 6.94975 3.06091 7.03642L2.70741 7.38992L2.66391 7.35092C2.57564 7.28116 2.46642 7.24322 2.35391 7.24322C2.24141 7.24322 2.13219 7.28116 2.04391 7.35092L1.99991 7.39042L3.41391 8.80442L3.45291 8.76092C3.52884 8.66475 3.56681 8.54406 3.55962 8.42175C3.55243 8.29944 3.50058 8.18402 3.41391 8.09742L3.76791 7.74392L3.81141 7.78242C3.89969 7.85217 4.00891 7.89012 4.12141 7.89012C4.23392 7.89012 4.34314 7.85217 4.43141 7.78242L4.47491 7.74392L5.88891 6.32942L5.92791 6.28542L5.96291 6.23542C6.02099 6.1397 6.04526 6.02727 6.03184 5.91613C6.01842 5.80499 5.96809 5.70156 5.88891 5.62242L5.53591 5.26892L6.24241 4.56242L6.18791 4.51092Z" fill="#0B0B0B"/>
</svg>
