<svg width="16" height="17" viewBox="0 0 16 17" fill="none" xmlns="http://www.w3.org/2000/svg">
<path fill-rule="evenodd" clip-rule="evenodd" d="M5.42855 13.9118C5.42855 14.3852 5.0448 14.7689 4.57143 14.7689H2.85715C2.38376 14.7689 2 14.3852 2 13.9118V11.7689C2 11.2955 2.38376 10.9118 2.85715 10.9118H4.57143C5.0448 10.9118 5.42855 11.2955 5.42855 11.7689V13.9118ZM9.7143 13.9118V7.91177C9.7143 7.43837 9.33055 7.05462 8.85715 7.05462H7.14285C6.66945 7.05462 6.2857 7.43837 6.2857 7.91177V13.9118C6.2857 14.3852 6.66945 14.7689 7.14285 14.7689H8.85715C9.33055 14.7689 9.7143 14.3852 9.7143 13.9118ZM10.5715 13.9118C10.5715 14.3852 10.9552 14.7689 11.4285 14.7689H13.1428C13.6163 14.7689 14 14.3852 14 13.9118V3.62607C14 3.15268 13.6163 2.76892 13.1428 2.76892H11.4285C10.9552 2.76892 10.5715 3.15268 10.5715 3.62607V13.9118ZM13.1428 3.62607H11.4285V13.9118H13.1428V3.62607Z" fill="#0B0B0B"/>
</svg>
